<svg width="12" height="12" viewBox="0 0 12 12" fill="none" xmlns="http://www.w3.org/2000/svg">
<path d="M2.21703 0.866586C2.09762 0.866586 1.97808 0.912072 1.88708 1.00331L0.953745 1.93664C0.771278 2.11911 0.771278 2.41453 0.953745 2.59653L4.35713 5.99992L0.953745 9.4033C0.771278 9.58577 0.771278 9.8812 0.953745 10.0632L1.88708 10.9965C2.06954 11.179 2.36497 11.179 2.54697 10.9965L5.95036 7.59315L9.35374 10.9965C9.53574 11.179 9.83164 11.179 10.0136 10.9965L10.947 10.0632C11.1294 9.88073 11.1294 9.5853 10.947 9.4033L7.54359 5.99992L10.947 2.59653C11.1294 2.41453 11.1294 2.11864 10.947 1.93664L10.0136 1.00331C9.83117 0.820838 9.53574 0.820838 9.35374 1.00331L5.95036 4.40669L2.54697 1.00331C2.45574 0.912072 2.33643 0.866586 2.21703 0.866586Z" fill="white"/>
</svg>
