<svg width="22" height="22" viewBox="0 0 22 22" fill="none" xmlns="http://www.w3.org/2000/svg">
<rect width="22" height="22" rx="11" fill="white"/>
<g clip-path="url(#clip0_1_506)">
<path d="M6.91719 12.5296L6.40666 14.4355L4.5407 14.475C3.98306 13.4407 3.66675 12.2573 3.66675 10.9997C3.66675 9.78368 3.96249 8.63693 4.48671 7.6272H4.48711L6.14834 7.93176L6.87606 9.58302C6.72375 10.0271 6.64073 10.5037 6.64073 10.9997C6.64079 11.538 6.7383 12.0538 6.91719 12.5296Z" fill="#FBBB00"/>
<path d="M18.2054 9.62988C18.2896 10.0735 18.3335 10.5316 18.3335 10.9998C18.3335 11.5249 18.2783 12.037 18.1731 12.531C17.8161 14.212 16.8834 15.6799 15.5912 16.7186L15.5908 16.7182L13.4984 16.6115L13.2022 14.7628C14.0596 14.26 14.7297 13.473 15.0827 12.531H11.1614V9.62988H15.1399H18.2054Z" fill="#518EF8"/>
<path d="M15.5907 16.7182L15.5911 16.7186C14.3344 17.7288 12.738 18.3332 11.0001 18.3332C8.20744 18.3332 5.77939 16.7722 4.54077 14.4751L6.91726 12.5298C7.53655 14.1826 9.13095 15.3592 11.0001 15.3592C11.8036 15.3592 12.5563 15.142 13.2022 14.7628L15.5907 16.7182Z" fill="#28B446"/>
<path d="M15.6808 5.35477L13.3051 7.29971C12.6367 6.88188 11.8465 6.64051 10.9999 6.64051C9.08844 6.64051 7.46422 7.87105 6.87595 9.58313L4.48697 7.62731H4.48657C5.70706 5.27419 8.16573 3.6665 10.9999 3.6665C12.7793 3.6665 14.4107 4.30032 15.6808 5.35477Z" fill="#F14336"/>
</g>
<defs>
<clipPath id="clip0_1_506">
<rect x="3.66675" y="3.6665" width="14.6667" height="14.6667" rx="7.33333" fill="white"/>
</clipPath>
</defs>
</svg>
